<svg height="512" viewBox="0 0 64 64" width="512" xmlns="http://www.w3.org/2000/svg"><g id="Tournament-Match-Fixtures-Trophy-Esport"><g fill="#ff6243"><path d="m51 53h8v8h-8z"/><path d="m35 53h8v8h-8z"/><path d="m58 33v10h-5l-5.07-2h-1.86l-5.07 2h-5v-10a2.006 2.006 0 0 1 2-2h18a2.006 2.006 0 0 1 2 2z"/></g><path d="m21 53h8v8h-8z" fill="#3d9ae2"/><path d="m5 53h8v8h-8z" fill="#3d9ae2"/><path d="m28 33v10h-5l-5.07-2h-1.86l-5.07 2h-5v-10a2.006 2.006 0 0 1 2-2h18a2.006 2.006 0 0 1 2 2z" fill="#3d9ae2"/><path d="m38 23v4h-12v-4h4 4z" fill="#ee8700"/><path d="m30 15h4v8h-4z" fill="#ff9811"/><path d="m43 3v6l-4 1v-7z" fill="#ffa733"/><path d="m25 3v7l-4-1v-6z" fill="#ffa733"/><path d="m34 15h-5a4 4 0 0 1 -4-4v-8h14v8a4 4 0 0 1 -4 4z" fill="#ff9811"/><path d="m30 15h4v2h-4z" fill="#ee8700"/><path d="m43 2h-22a1 1 0 0 0 -1 1v6a1 1 0 0 0 .76.97l3.24.81v.22a5 5 0 0 0 5 5v6h-3a1 1 0 0 0 -1 1v4a1 1 0 0 0 1 1h12a1 1 0 0 0 1-1v-4a1 1 0 0 0 -1-1h-3v-6a5 5 0 0 0 5-5v-.22l3.24-.81a1 1 0 0 0 .76-.97v-6a1 1 0 0 0 -1-1zm-19 6.72-2-.5v-4.22h2zm13 15.28v2h-10v-2zm-6-2v-6h2v6zm7-11a3.009 3.009 0 0 1 -3 3h-6a3.009 3.009 0 0 1 -3-3v-7h12zm4-2.78-2 .5v-4.72h2z"/><path d="m26 30h-18a3.009 3.009 0 0 0 -3 3v10a1 1 0 0 0 1 1h5a.937.937 0 0 0 .37-.07l4.89-1.93h1.48l4.89 1.93a.937.937 0 0 0 .37.07h5a1 1 0 0 0 1-1v-10a3.009 3.009 0 0 0 -3-3zm1 12h-3.81l-4.89-1.93a.937.937 0 0 0 -.37-.07h-1.86a.937.937 0 0 0 -.37.07l-4.89 1.93h-3.81v-9a1 1 0 0 1 1-1h18a1 1 0 0 1 1 1z"/><path d="m11 40h2v-2h2v-2h-2v-2h-2v2h-2v2h2z"/><path d="m23 36h2v2h-2z"/><path d="m19 36h2v2h-2z"/><path d="m56 30h-18a3.009 3.009 0 0 0 -3 3v10a1 1 0 0 0 1 1h5a.937.937 0 0 0 .37-.07l4.89-1.93h1.48l4.89 1.93a.937.937 0 0 0 .37.07h5a1 1 0 0 0 1-1v-10a3.009 3.009 0 0 0 -3-3zm1 12h-3.81l-4.89-1.93a.937.937 0 0 0 -.37-.07h-1.86a.937.937 0 0 0 -.37.07l-4.89 1.93h-3.81v-9a1 1 0 0 1 1-1h18a1 1 0 0 1 1 1z"/><path d="m43 34h-2v2h-2v2h2v2h2v-2h2v-2h-2z"/><path d="m53 36h2v2h-2z"/><path d="m49 36h2v2h-2z"/><path d="m13 52h-8a1 1 0 0 0 -1 1v8a1 1 0 0 0 1 1h8a1 1 0 0 0 1-1v-8a1 1 0 0 0 -1-1zm-1 8h-6v-6h6z"/><path d="m29 52h-8a1 1 0 0 0 -1 1v8a1 1 0 0 0 1 1h8a1 1 0 0 0 1-1v-8a1 1 0 0 0 -1-1zm-1 8h-6v-6h6z"/><path d="m59 52h-8a1 1 0 0 0 -1 1v8a1 1 0 0 0 1 1h8a1 1 0 0 0 1-1v-8a1 1 0 0 0 -1-1zm-1 8h-6v-6h6z"/><path d="m43 52h-8a1 1 0 0 0 -1 1v8a1 1 0 0 0 1 1h8a1 1 0 0 0 1-1v-8a1 1 0 0 0 -1-1zm-1 8h-6v-6h6z"/><path d="m56 50v-3a1 1 0 0 0 -1-1h-7v-2h-2v2h-7a1 1 0 0 0 -1 1v3h2v-2h14v2z"/><path d="m26 50v-3a1 1 0 0 0 -1-1h-7v-2h-2v2h-7a1 1 0 0 0 -1 1v3h2v-2h14v2z"/><path d="m47 22h2v-2h2v-2h-2v-2h-2v2h-2v2h2z"/><path d="m55 8h2v-2h2v-2h-2v-2h-2v2h-2v2h2z"/><path d="m53 13h2v2h-2z"/><path d="m57 23h2v2h-2z"/><path d="m15 22h2v-2h2v-2h-2v-2h-2v2h-2v2h2z"/><path d="m7 8h2v-2h2v-2h-2v-2h-2v2h-2v2h2z"/><path d="m9 13h2v2h-2z"/><path d="m5 23h2v2h-2z"/></g></svg>